<svg xmlns="http://www.w3.org/2000/svg" xmlns:xlink="http://www.w3.org/1999/xlink" width="200" zoomAndPan="magnify" viewBox="0 0 150 74.999997" height="100" preserveAspectRatio="xMidYMid meet" version="1.0"><defs><g/><clipPath id="dc1893b971"><path d="M 0 7.953125 L 60.089844 7.953125 L 60.089844 68.042969 L 0 68.042969 Z M 0 7.953125 " clip-rule="nonzero"/></clipPath><clipPath id="647abbdb6e"><path d="M 30.042969 7.953125 C 13.453125 7.953125 0 21.40625 0 38 C 0 54.59375 13.453125 68.042969 30.042969 68.042969 C 46.636719 68.042969 60.089844 54.59375 60.089844 38 C 60.089844 21.40625 46.636719 7.953125 30.042969 7.953125 " clip-rule="nonzero"/></clipPath><clipPath id="b3f42fcbfb"><path d="M 44.105469 25.15625 L 50.226562 25.15625 L 50.226562 31.277344 L 44.105469 31.277344 Z M 44.105469 25.15625 " clip-rule="nonzero"/></clipPath><clipPath id="155f49c1e6"><path d="M 22.675781 43.125 L 28.550781 43.125 L 28.550781 45.695312 L 22.675781 45.695312 Z M 22.675781 43.125 " clip-rule="nonzero"/></clipPath><clipPath id="fc0c870f34"><path d="M 41.484375 39.203125 L 47.359375 39.203125 L 47.359375 41.773438 L 41.484375 41.773438 Z M 41.484375 39.203125 " clip-rule="nonzero"/></clipPath></defs><g clip-path="url(#dc1893b971)"><g clip-path="url(#647abbdb6e)"><path fill="#ec4899" d="M 30.042969 17.695312 C 27.8125 17.695312 25.65625 18.046875 23.570312 18.75 L 17.359375 0.28125 C 21.460938 -1.097656 25.6875 -1.789062 30.042969 -1.789062 Z M 17.785156 21.816406 C 16.015625 23.15625 14.503906 24.746094 13.253906 26.578125 L -2.839844 15.597656 C -0.398438 12.019531 2.546875 8.917969 6 6.296875 Z M 10.492188 32.507812 C 9.992188 34.289062 9.742188 36.121094 9.742188 38 C 9.742188 38.347656 9.75 38.699219 9.769531 39.046875 L -9.691406 40.027344 C -9.726562 39.351562 -9.742188 38.675781 -9.742188 38 C -9.742188 34.335938 -9.253906 30.753906 -8.269531 27.253906 Z M 11.148438 45.441406 C 11.957031 47.496094 13.078125 49.371094 14.507812 51.070312 L -0.394531 63.621094 C -3.195312 60.296875 -5.390625 56.621094 -6.980469 52.589844 Z M 19.492188 55.347656 C 21.382812 56.5 23.402344 57.320312 25.550781 57.804688 L 21.265625 76.8125 C 17.03125 75.859375 13.058594 74.246094 9.34375 71.980469 Z M 32.121094 58.199219 C 34.324219 57.976562 36.429688 57.40625 38.4375 56.496094 L 46.503906 74.230469 C 42.550781 76.027344 38.40625 77.144531 34.078125 77.582031 Z M 43.890625 52.847656 C 45.515625 51.332031 46.855469 49.601562 47.910156 47.65625 L 65.039062 56.941406 C 62.976562 60.75 60.355469 64.132812 57.183594 67.09375 Z M 50.050781 41.480469 C 50.25 40.335938 50.347656 39.175781 50.347656 38 C 50.347656 36.953125 50.269531 35.917969 50.113281 34.894531 L 69.375 31.949219 C 69.679688 33.945312 69.832031 35.964844 69.832031 38 C 69.832031 40.285156 69.640625 42.550781 69.253906 44.789062 Z M 48.089844 28.679688 C 47.070312 26.714844 45.765625 24.960938 44.167969 23.414062 L 57.722656 9.417969 C 60.84375 12.4375 63.398438 15.871094 65.390625 19.71875 Z M 38.78125 19.664062 C 36.792969 18.714844 34.699219 18.105469 32.503906 17.84375 L 34.828125 -1.503906 C 39.144531 -0.984375 43.265625 0.210938 47.183594 2.085938 Z M 38.78125 19.664062 " fill-opacity="1" fill-rule="nonzero"/></g></g><path fill="#ec4899" d="M 42.566406 56.164062 C 32.054688 62.703125 21.109375 57.820312 18.585938 56.53125 C 18.519531 56.496094 18.445312 56.476562 18.371094 56.476562 C 18.296875 56.476562 18.222656 56.496094 18.15625 56.53125 C 18.089844 56.566406 18.035156 56.613281 17.992188 56.675781 C 17.945312 56.734375 17.917969 56.804688 17.910156 56.878906 C 17.910156 56.910156 17.898438 56.945312 17.894531 56.976562 C 17.832031 57.484375 17.855469 57.984375 17.964844 58.484375 C 18.074219 58.984375 18.261719 59.449219 18.53125 59.882812 C 18.800781 60.320312 19.132812 60.695312 19.53125 61.015625 C 19.929688 61.335938 20.367188 61.582031 20.847656 61.75 C 22.160156 62.210938 23.5 62.578125 24.863281 62.855469 C 26.6875 63.226562 28.535156 63.414062 30.398438 63.414062 C 33.886719 63.414062 37.25 62.761719 40.484375 61.449219 C 41.179688 61.171875 41.769531 60.75 42.25 60.175781 C 42.734375 59.605469 43.050781 58.953125 43.203125 58.21875 C 43.335938 57.644531 43.359375 57.0625 43.273438 56.476562 C 43.257812 56.398438 43.226562 56.332031 43.179688 56.269531 C 43.132812 56.210938 43.074219 56.164062 43.003906 56.132812 C 42.933594 56.101562 42.859375 56.085938 42.78125 56.09375 C 42.703125 56.097656 42.632812 56.121094 42.566406 56.164062 Z M 42.566406 56.164062 " fill-opacity="1" fill-rule="nonzero"/><path fill="#ec4899" d="M 28.410156 38.800781 C 26.597656 38.523438 24.863281 39.695312 24.695312 40.800781 C 24.527344 41.910156 26.175781 42.355469 27.996094 42.636719 C 29.816406 42.914062 31.128906 42.914062 31.300781 41.808594 C 31.46875 40.707031 30.234375 39.078125 28.410156 38.800781 Z M 28.410156 38.800781 " fill-opacity="1" fill-rule="nonzero"/><path fill="#ec4899" d="M 39.21875 36.59375 C 38.007812 37.097656 37.472656 38.757812 37.878906 39.71875 C 38.285156 40.683594 39.523438 40.402344 40.722656 39.894531 C 41.925781 39.386719 42.644531 38.84375 42.238281 37.875 C 41.832031 36.90625 40.421875 36.082031 39.21875 36.59375 Z M 39.21875 36.59375 " fill-opacity="1" fill-rule="nonzero"/><path fill="#ec4899" d="M 17.410156 32.109375 L 21.765625 29.78125 C 21.765625 29.78125 16.507812 19.558594 17.410156 32.109375 Z M 17.410156 32.109375 " fill-opacity="1" fill-rule="nonzero"/><path fill="#ec4899" d="M 39.960938 45.230469 C 39.828125 45.195312 39.699219 45.210938 39.578125 45.28125 C 39.457031 45.347656 39.378906 45.449219 39.34375 45.585938 C 39.207031 46.078125 38.988281 46.378906 38.667969 46.503906 C 38.109375 46.726562 37.308594 46.410156 36.90625 46.199219 C 37.1875 44.523438 36.65625 42.609375 36.625 42.496094 C 36.617188 42.46875 36.605469 42.445312 36.59375 42.417969 C 36.902344 42.1875 37.136719 41.898438 37.300781 41.550781 C 37.398438 41.351562 37.378906 41.164062 37.238281 40.992188 C 37.097656 40.816406 36.921875 40.757812 36.703125 40.816406 L 34.890625 41.273438 C 34.671875 41.332031 34.546875 41.46875 34.503906 41.6875 C 34.464844 41.90625 34.535156 42.078125 34.71875 42.207031 C 34.992188 42.417969 35.300781 42.558594 35.640625 42.628906 C 35.636719 42.679688 35.640625 42.726562 35.65625 42.773438 C 35.917969 43.695312 36.375 46.3125 35.339844 47.289062 C 34.78125 47.816406 33.78125 47.835938 32.378906 47.34375 C 32.25 47.296875 32.121094 47.304688 31.996094 47.367188 C 31.871094 47.425781 31.785156 47.523438 31.738281 47.652344 C 31.691406 47.785156 31.699219 47.914062 31.761719 48.039062 C 31.820312 48.164062 31.917969 48.25 32.046875 48.296875 C 32.71875 48.546875 33.410156 48.683594 34.125 48.699219 C 34.855469 48.734375 35.492188 48.503906 36.03125 48.015625 C 36.285156 47.773438 36.480469 47.496094 36.617188 47.175781 C 37.125 47.429688 37.664062 47.5625 38.230469 47.582031 C 38.511719 47.582031 38.78125 47.535156 39.039062 47.433594 C 39.667969 47.1875 40.097656 46.648438 40.320312 45.839844 C 40.355469 45.707031 40.335938 45.582031 40.265625 45.460938 C 40.195312 45.34375 40.09375 45.265625 39.960938 45.230469 Z M 39.960938 45.230469 " fill-opacity="1" fill-rule="nonzero"/><path fill="#ec4899" d="M 37.746094 28.453125 C 37.746094 28.453125 35.929688 18.695312 34.035156 27.71875 C 34.035156 27.71875 36.050781 27.449219 37.746094 28.453125 Z M 37.746094 28.453125 " fill-opacity="1" fill-rule="nonzero"/><path fill="#ec4899" d="M 29.964844 12.558594 C 29.214844 12.558594 28.46875 12.59375 27.722656 12.667969 C 26.980469 12.742188 26.238281 12.851562 25.503906 13 C 24.769531 13.144531 24.042969 13.324219 23.328125 13.542969 C 22.609375 13.761719 21.90625 14.011719 21.214844 14.300781 C 20.523438 14.585938 19.84375 14.90625 19.183594 15.261719 C 18.523438 15.613281 17.882812 15.996094 17.261719 16.414062 C 16.636719 16.832031 16.035156 17.277344 15.457031 17.75 C 14.878906 18.226562 14.324219 18.730469 13.792969 19.257812 C 13.265625 19.789062 12.761719 20.34375 12.289062 20.921875 C 11.8125 21.5 11.367188 22.101562 10.949219 22.726562 C 10.535156 23.347656 10.148438 23.992188 9.796875 24.652344 C 9.445312 25.3125 9.125 25.988281 8.835938 26.679688 C 8.550781 27.375 8.296875 28.078125 8.082031 28.792969 C 7.863281 29.511719 7.683594 30.238281 7.535156 30.972656 C 7.390625 31.707031 7.28125 32.449219 7.207031 33.191406 C 7.132812 33.9375 7.097656 34.6875 7.097656 35.433594 C 7.097656 36.183594 7.132812 36.933594 7.207031 37.679688 C 7.28125 38.421875 7.390625 39.164062 7.535156 39.898438 C 7.683594 40.632812 7.863281 41.359375 8.082031 42.078125 C 8.296875 42.792969 8.550781 43.496094 8.835938 44.191406 C 9.125 44.882812 9.445312 45.558594 9.796875 46.21875 C 10.148438 46.878906 10.535156 47.523438 10.949219 48.144531 C 11.367188 48.769531 11.8125 49.371094 12.289062 49.949219 C 12.761719 50.527344 13.265625 51.082031 13.792969 51.613281 C 14.324219 52.140625 14.878906 52.644531 15.457031 53.121094 C 16.035156 53.59375 16.636719 54.039062 17.261719 54.457031 C 17.882812 54.875 18.523438 55.257812 19.183594 55.609375 C 19.84375 55.964844 20.523438 56.285156 21.214844 56.570312 C 21.90625 56.859375 22.609375 57.109375 23.328125 57.328125 C 24.042969 57.546875 24.769531 57.726562 25.503906 57.871094 C 26.238281 58.019531 26.980469 58.128906 27.722656 58.203125 C 28.46875 58.277344 29.214844 58.3125 29.964844 58.3125 C 30.714844 58.3125 31.460938 58.277344 32.207031 58.203125 C 32.953125 58.128906 33.691406 58.019531 34.425781 57.871094 C 35.160156 57.726562 35.886719 57.546875 36.605469 57.328125 C 37.320312 57.109375 38.023438 56.859375 38.71875 56.570312 C 39.410156 56.285156 40.085938 55.964844 40.746094 55.609375 C 41.40625 55.257812 42.046875 54.875 42.671875 54.457031 C 43.292969 54.039062 43.894531 53.59375 44.472656 53.121094 C 45.054688 52.644531 45.605469 52.140625 46.136719 51.613281 C 46.667969 51.082031 47.167969 50.527344 47.644531 49.949219 C 48.117188 49.371094 48.566406 48.769531 48.980469 48.144531 C 49.398438 47.523438 49.78125 46.878906 50.132812 46.21875 C 50.488281 45.558594 50.808594 44.882812 51.09375 44.191406 C 51.378906 43.496094 51.632812 42.792969 51.851562 42.078125 C 52.066406 41.359375 52.25 40.632812 52.394531 39.898438 C 52.542969 39.164062 52.652344 38.421875 52.726562 37.679688 C 52.796875 36.933594 52.835938 36.183594 52.835938 35.433594 C 52.835938 34.6875 52.796875 33.9375 52.726562 33.191406 C 52.652344 32.449219 52.542969 31.707031 52.394531 30.972656 C 52.25 30.238281 52.066406 29.511719 51.851562 28.792969 C 51.632812 28.078125 51.378906 27.375 51.09375 26.679688 C 50.808594 25.988281 50.488281 25.3125 50.132812 24.652344 C 49.78125 23.992188 49.398438 23.347656 48.980469 22.726562 C 48.566406 22.101562 48.117188 21.5 47.644531 20.921875 C 47.167969 20.34375 46.667969 19.789062 46.136719 19.257812 C 45.605469 18.730469 45.054688 18.226562 44.472656 17.75 C 43.894531 17.277344 43.292969 16.832031 42.671875 16.414062 C 42.046875 15.996094 41.40625 15.613281 40.746094 15.261719 C 40.085938 14.90625 39.410156 14.585938 38.71875 14.300781 C 38.023438 14.011719 37.320312 13.761719 36.605469 13.542969 C 35.886719 13.324219 35.160156 13.144531 34.425781 13 C 33.691406 12.851562 32.953125 12.742188 32.207031 12.667969 C 31.460938 12.59375 30.714844 12.558594 29.964844 12.558594 Z M 41.644531 19.148438 C 41.757812 19.015625 41.894531 18.90625 42.046875 18.828125 C 42.203125 18.75 42.367188 18.703125 42.539062 18.6875 C 42.710938 18.675781 42.882812 18.695312 43.046875 18.746094 C 43.214844 18.800781 43.363281 18.882812 43.496094 18.996094 C 44.050781 19.46875 44.582031 19.972656 45.085938 20.503906 C 45.203125 20.628906 45.292969 20.773438 45.355469 20.9375 C 45.417969 21.101562 45.445312 21.269531 45.441406 21.441406 C 45.4375 21.617188 45.398438 21.78125 45.328125 21.941406 C 45.257812 22.101562 45.15625 22.238281 45.03125 22.359375 C 44.902344 22.476562 44.757812 22.570312 44.597656 22.628906 C 44.433594 22.691406 44.265625 22.71875 44.09375 22.714844 C 43.917969 22.710938 43.75 22.671875 43.59375 22.601562 C 43.433594 22.527344 43.296875 22.429688 43.175781 22.304688 C 42.738281 21.84375 42.277344 21.40625 41.792969 20.996094 C 41.660156 20.882812 41.554688 20.75 41.476562 20.59375 C 41.398438 20.4375 41.351562 20.273438 41.335938 20.101562 C 41.324219 19.929688 41.34375 19.757812 41.394531 19.59375 C 41.449219 19.429688 41.535156 19.277344 41.644531 19.148438 Z M 25.667969 14.886719 C 27.792969 14.335938 29.953125 14.144531 32.144531 14.3125 C 34.335938 14.484375 36.4375 15.003906 38.453125 15.878906 C 38.722656 15.992188 38.929688 16.179688 39.074219 16.429688 C 39.21875 16.683594 39.273438 16.957031 39.238281 17.246094 C 39.203125 17.535156 39.082031 17.785156 38.878906 17.996094 C 38.675781 18.207031 38.433594 18.332031 38.144531 18.378906 C 37.894531 18.421875 37.652344 18.390625 37.421875 18.289062 C 35.671875 17.53125 33.84375 17.078125 31.945312 16.933594 C 30.042969 16.785156 28.167969 16.949219 26.324219 17.429688 C 26.15625 17.472656 25.984375 17.480469 25.8125 17.457031 C 25.640625 17.433594 25.480469 17.375 25.328125 17.289062 C 25.179688 17.199219 25.050781 17.085938 24.949219 16.945312 C 24.84375 16.808594 24.769531 16.652344 24.726562 16.484375 C 24.683594 16.316406 24.671875 16.148438 24.699219 15.972656 C 24.722656 15.800781 24.777344 15.640625 24.867188 15.492188 C 24.957031 15.339844 25.070312 15.214844 25.207031 15.109375 C 25.347656 15.003906 25.5 14.929688 25.667969 14.886719 Z M 29.058594 55.5625 C 7.121094 54.578125 15.003906 34.191406 15.003906 34.191406 C 14.242188 12.554688 24.285156 28.347656 24.285156 28.347656 C 27.78125 26.921875 31.457031 26.972656 31.457031 26.972656 C 31.457031 26.972656 33.335938 20.070312 35.96875 20.371094 C 38.601562 20.671875 40.046875 28.714844 40.046875 28.714844 C 52.402344 34.730469 50.335938 56.511719 29.058594 55.5625 Z M 29.058594 55.5625 " fill-opacity="1" fill-rule="nonzero"/><g clip-path="url(#b3f42fcbfb)"><path fill="#ffffff" d="M 47.167969 25.15625 C 46.867188 27.679688 46.625 27.917969 44.105469 28.21875 C 44.113281 28.21875 44.117188 28.21875 44.121094 28.21875 C 46.628906 28.515625 46.867188 28.761719 47.167969 31.277344 C 47.464844 28.757812 47.707031 28.515625 50.226562 28.21875 C 47.707031 27.917969 47.464844 27.679688 47.167969 25.15625 Z M 47.167969 25.15625 " fill-opacity="1" fill-rule="nonzero"/></g><g clip-path="url(#155f49c1e6)"><path fill="#ec4899" d="M 28.25 43.828125 C 28.425781 44.011719 28.546875 44.222656 28.546875 44.488281 C 28.542969 44.671875 28.410156 44.867188 28.234375 44.929688 C 27.886719 45.046875 27.53125 45.105469 27.164062 45.132812 C 26.839844 45.15625 26.511719 45.203125 26.191406 45.292969 C 26.046875 45.332031 25.890625 45.328125 25.742188 45.367188 C 25.507812 45.429688 25.273438 45.480469 25.035156 45.539062 C 24.898438 45.570312 24.75 45.585938 24.613281 45.597656 C 24.363281 45.617188 24.117188 45.691406 23.863281 45.667969 C 23.511719 45.636719 23.15625 45.59375 22.867188 45.355469 C 22.769531 45.277344 22.714844 45.171875 22.703125 45.042969 C 22.675781 44.707031 22.796875 44.425781 23.011719 44.183594 C 23.261719 43.898438 23.527344 43.625 23.894531 43.496094 C 24.164062 43.402344 24.429688 43.304688 24.71875 43.257812 C 25.15625 43.191406 25.589844 43.128906 26.066406 43.152344 C 26.234375 43.152344 26.441406 43.128906 26.636719 43.160156 C 27.230469 43.246094 27.8125 43.378906 28.25 43.828125 Z M 28.25 43.828125 " fill-opacity="1" fill-rule="nonzero"/></g><g clip-path="url(#fc0c870f34)"><path fill="#ec4899" d="M 47.058594 39.90625 C 47.234375 40.089844 47.355469 40.300781 47.355469 40.5625 C 47.351562 40.75 47.21875 40.945312 47.042969 41.007812 C 46.695312 41.125 46.339844 41.183594 45.972656 41.210938 C 45.648438 41.234375 45.320312 41.28125 45 41.367188 C 44.859375 41.410156 44.699219 41.40625 44.550781 41.445312 C 44.316406 41.507812 44.082031 41.558594 43.84375 41.617188 C 43.707031 41.648438 43.558594 41.664062 43.425781 41.675781 C 43.171875 41.695312 42.925781 41.769531 42.671875 41.746094 C 42.320312 41.714844 41.964844 41.671875 41.675781 41.433594 C 41.578125 41.355469 41.523438 41.25 41.511719 41.121094 C 41.484375 40.785156 41.605469 40.503906 41.820312 40.261719 C 42.070312 39.976562 42.335938 39.703125 42.703125 39.574219 C 42.972656 39.480469 43.238281 39.382812 43.527344 39.335938 C 43.964844 39.269531 44.398438 39.207031 44.875 39.230469 C 45.042969 39.230469 45.25 39.207031 45.445312 39.234375 C 46.039062 39.324219 46.621094 39.453125 47.058594 39.90625 Z M 47.058594 39.90625 " fill-opacity="1" fill-rule="nonzero"/></g><g fill="#ff0099" fill-opacity="0.4"><g transform="translate(63.241668, 67.46548)"><g><path d="M 3.234375 0 L 3.234375 -56.15625 L 14.328125 -56.15625 C 18.484375 -56.15625 21.507812 -55.265625 23.40625 -53.484375 C 25.300781 -51.710938 26.320312 -48.816406 26.46875 -44.796875 C 26.5625 -42.210938 26.609375 -39.878906 26.609375 -37.796875 C 26.609375 -35.722656 26.5625 -33.535156 26.46875 -31.234375 C 26.320312 -27.210938 25.300781 -24.3125 23.40625 -22.53125 C 21.507812 -20.757812 18.457031 -19.875 14.25 -19.875 L 10.875 -19.875 L 10.875 0 Z M 10.875 -26.609375 L 14.25 -26.609375 C 17.195312 -26.609375 18.742188 -28.035156 18.890625 -30.890625 C 18.984375 -33.140625 19.03125 -35.515625 19.03125 -38.015625 C 19.03125 -40.515625 18.984375 -42.890625 18.890625 -45.140625 C 18.742188 -47.992188 17.222656 -49.421875 14.328125 -49.421875 L 10.875 -49.421875 Z M 10.875 -26.609375 "/></g></g></g><g fill="#ff0099" fill-opacity="0.4"><g transform="translate(91.46332, 67.46548)"><g><path d="M 15.4375 0.5625 C 11.226562 0.5625 8.195312 -0.328125 6.34375 -2.109375 C 4.5 -3.890625 3.53125 -6.859375 3.4375 -11.015625 C 3.207031 -22.390625 3.207031 -33.785156 3.4375 -45.203125 C 3.53125 -49.328125 4.5 -52.273438 6.34375 -54.046875 C 8.195312 -55.828125 11.226562 -56.71875 15.4375 -56.71875 C 19.65625 -56.71875 22.675781 -55.828125 24.5 -54.046875 C 26.320312 -52.273438 27.304688 -49.328125 27.453125 -45.203125 C 27.734375 -33.742188 27.734375 -22.347656 27.453125 -11.015625 C 27.304688 -6.859375 26.320312 -3.890625 24.5 -2.109375 C 22.675781 -0.328125 19.65625 0.5625 15.4375 0.5625 Z M 15.4375 -5.6875 C 18.300781 -5.6875 19.78125 -7.019531 19.875 -9.6875 C 20.007812 -13.570312 20.085938 -17.617188 20.109375 -21.828125 C 20.128906 -26.046875 20.117188 -30.257812 20.078125 -34.46875 C 20.035156 -38.675781 19.96875 -42.703125 19.875 -46.546875 C 19.78125 -49.160156 18.300781 -50.46875 15.4375 -50.46875 C 12.539062 -50.46875 11.066406 -49.160156 11.015625 -46.546875 C 10.878906 -42.703125 10.785156 -38.675781 10.734375 -34.46875 C 10.691406 -30.257812 10.691406 -26.046875 10.734375 -21.828125 C 10.785156 -17.617188 10.878906 -13.570312 11.015625 -9.6875 C 11.066406 -7.019531 12.539062 -5.6875 15.4375 -5.6875 Z M 15.4375 -5.6875 "/></g></g></g><g fill="#ff0099" fill-opacity="0.4"><g transform="translate(122.352706, 67.46548)"><g><path d="M 15.4375 0.5625 C 11.226562 0.5625 8.234375 -0.335938 6.453125 -2.140625 C 4.679688 -3.941406 3.703125 -6.925781 3.515625 -11.09375 C 3.460938 -12.726562 3.445312 -14.316406 3.46875 -15.859375 C 3.5 -17.410156 3.582031 -19.023438 3.71875 -20.703125 L 10.875 -20.703125 C 10.78125 -18.785156 10.722656 -16.890625 10.703125 -15.015625 C 10.679688 -13.148438 10.738281 -11.398438 10.875 -9.765625 C 10.96875 -8.359375 11.378906 -7.328125 12.109375 -6.671875 C 12.835938 -6.015625 13.945312 -5.6875 15.4375 -5.6875 C 16.894531 -5.6875 17.960938 -6.015625 18.640625 -6.671875 C 19.316406 -7.328125 19.703125 -8.359375 19.796875 -9.765625 C 19.941406 -11.347656 20 -12.78125 19.96875 -14.0625 C 19.945312 -15.351562 19.890625 -16.867188 19.796875 -18.609375 C 19.703125 -19.960938 19.421875 -21.128906 18.953125 -22.109375 C 18.484375 -23.097656 17.640625 -23.753906 16.421875 -24.078125 L 11.71875 -25.265625 C 8.539062 -26.066406 6.363281 -27.445312 5.1875 -29.40625 C 4.019531 -31.375 3.390625 -34.046875 3.296875 -37.421875 C 3.296875 -38.679688 3.296875 -39.96875 3.296875 -41.28125 C 3.296875 -42.59375 3.320312 -43.878906 3.375 -45.140625 C 3.507812 -49.304688 4.476562 -52.273438 6.28125 -54.046875 C 8.082031 -55.828125 11.132812 -56.71875 15.4375 -56.71875 C 19.46875 -56.71875 22.394531 -55.828125 24.21875 -54.046875 C 26.039062 -52.273438 27.023438 -49.304688 27.171875 -45.140625 C 27.210938 -43.972656 27.222656 -42.554688 27.203125 -40.890625 C 27.179688 -39.234375 27.144531 -37.5625 27.09375 -35.875 L 19.796875 -35.875 C 19.847656 -37.65625 19.882812 -39.421875 19.90625 -41.171875 C 19.925781 -42.929688 19.890625 -44.695312 19.796875 -46.46875 C 19.703125 -49.132812 18.226562 -50.46875 15.375 -50.46875 C 13.925781 -50.46875 12.847656 -50.140625 12.140625 -49.484375 C 11.441406 -48.835938 11.046875 -47.832031 10.953125 -46.46875 C 10.804688 -44.976562 10.742188 -43.472656 10.765625 -41.953125 C 10.796875 -40.429688 10.859375 -38.921875 10.953125 -37.421875 C 11.046875 -35.867188 11.335938 -34.648438 11.828125 -33.765625 C 12.316406 -32.878906 13.21875 -32.269531 14.53125 -31.9375 L 18.75 -30.953125 C 22.070312 -30.160156 24.316406 -28.742188 25.484375 -26.703125 C 26.648438 -24.671875 27.304688 -21.972656 27.453125 -18.609375 C 27.492188 -17.109375 27.503906 -15.816406 27.484375 -14.734375 C 27.460938 -13.660156 27.425781 -12.445312 27.375 -11.09375 C 27.238281 -6.925781 26.253906 -3.941406 24.421875 -2.140625 C 22.597656 -0.335938 19.601562 0.5625 15.4375 0.5625 Z M 15.4375 0.5625 "/></g></g></g><g fill="#ec4899" fill-opacity="1"><g transform="translate(60.139044, 64.362857)"><g><path d="M 3.234375 0 L 3.234375 -56.15625 L 14.328125 -56.15625 C 18.484375 -56.15625 21.507812 -55.265625 23.40625 -53.484375 C 25.300781 -51.710938 26.320312 -48.816406 26.46875 -44.796875 C 26.5625 -42.210938 26.609375 -39.878906 26.609375 -37.796875 C 26.609375 -35.722656 26.5625 -33.535156 26.46875 -31.234375 C 26.320312 -27.210938 25.300781 -24.3125 23.40625 -22.53125 C 21.507812 -20.757812 18.457031 -19.875 14.25 -19.875 L 10.875 -19.875 L 10.875 0 Z M 10.875 -26.609375 L 14.25 -26.609375 C 17.195312 -26.609375 18.742188 -28.035156 18.890625 -30.890625 C 18.984375 -33.140625 19.03125 -35.515625 19.03125 -38.015625 C 19.03125 -40.515625 18.984375 -42.890625 18.890625 -45.140625 C 18.742188 -47.992188 17.222656 -49.421875 14.328125 -49.421875 L 10.875 -49.421875 Z M 10.875 -26.609375 "/></g></g></g><g fill="#ec4899" fill-opacity="1"><g transform="translate(88.360696, 64.362857)"><g><path d="M 15.4375 0.5625 C 11.226562 0.5625 8.195312 -0.328125 6.34375 -2.109375 C 4.5 -3.890625 3.53125 -6.859375 3.4375 -11.015625 C 3.207031 -22.390625 3.207031 -33.785156 3.4375 -45.203125 C 3.53125 -49.328125 4.5 -52.273438 6.34375 -54.046875 C 8.195312 -55.828125 11.226562 -56.71875 15.4375 -56.71875 C 19.65625 -56.71875 22.675781 -55.828125 24.5 -54.046875 C 26.320312 -52.273438 27.304688 -49.328125 27.453125 -45.203125 C 27.734375 -33.742188 27.734375 -22.347656 27.453125 -11.015625 C 27.304688 -6.859375 26.320312 -3.890625 24.5 -2.109375 C 22.675781 -0.328125 19.65625 0.5625 15.4375 0.5625 Z M 15.4375 -5.6875 C 18.300781 -5.6875 19.78125 -7.019531 19.875 -9.6875 C 20.007812 -13.570312 20.085938 -17.617188 20.109375 -21.828125 C 20.128906 -26.046875 20.117188 -30.257812 20.078125 -34.46875 C 20.035156 -38.675781 19.96875 -42.703125 19.875 -46.546875 C 19.78125 -49.160156 18.300781 -50.46875 15.4375 -50.46875 C 12.539062 -50.46875 11.066406 -49.160156 11.015625 -46.546875 C 10.878906 -42.703125 10.785156 -38.675781 10.734375 -34.46875 C 10.691406 -30.257812 10.691406 -26.046875 10.734375 -21.828125 C 10.785156 -17.617188 10.878906 -13.570312 11.015625 -9.6875 C 11.066406 -7.019531 12.539062 -5.6875 15.4375 -5.6875 Z M 15.4375 -5.6875 "/></g></g></g><g fill="#ec4899" fill-opacity="1"><g transform="translate(119.250082, 64.362857)"><g><path d="M 15.4375 0.5625 C 11.226562 0.5625 8.234375 -0.335938 6.453125 -2.140625 C 4.679688 -3.941406 3.703125 -6.925781 3.515625 -11.09375 C 3.460938 -12.726562 3.445312 -14.316406 3.46875 -15.859375 C 3.5 -17.410156 3.582031 -19.023438 3.71875 -20.703125 L 10.875 -20.703125 C 10.78125 -18.785156 10.722656 -16.890625 10.703125 -15.015625 C 10.679688 -13.148438 10.738281 -11.398438 10.875 -9.765625 C 10.96875 -8.359375 11.378906 -7.328125 12.109375 -6.671875 C 12.835938 -6.015625 13.945312 -5.6875 15.4375 -5.6875 C 16.894531 -5.6875 17.960938 -6.015625 18.640625 -6.671875 C 19.316406 -7.328125 19.703125 -8.359375 19.796875 -9.765625 C 19.941406 -11.347656 20 -12.78125 19.96875 -14.0625 C 19.945312 -15.351562 19.890625 -16.867188 19.796875 -18.609375 C 19.703125 -19.960938 19.421875 -21.128906 18.953125 -22.109375 C 18.484375 -23.097656 17.640625 -23.753906 16.421875 -24.078125 L 11.71875 -25.265625 C 8.539062 -26.066406 6.363281 -27.445312 5.1875 -29.40625 C 4.019531 -31.375 3.390625 -34.046875 3.296875 -37.421875 C 3.296875 -38.679688 3.296875 -39.96875 3.296875 -41.28125 C 3.296875 -42.59375 3.320312 -43.878906 3.375 -45.140625 C 3.507812 -49.304688 4.476562 -52.273438 6.28125 -54.046875 C 8.082031 -55.828125 11.132812 -56.71875 15.4375 -56.71875 C 19.46875 -56.71875 22.394531 -55.828125 24.21875 -54.046875 C 26.039062 -52.273438 27.023438 -49.304688 27.171875 -45.140625 C 27.210938 -43.972656 27.222656 -42.554688 27.203125 -40.890625 C 27.179688 -39.234375 27.144531 -37.5625 27.09375 -35.875 L 19.796875 -35.875 C 19.847656 -37.65625 19.882812 -39.421875 19.90625 -41.171875 C 19.925781 -42.929688 19.890625 -44.695312 19.796875 -46.46875 C 19.703125 -49.132812 18.226562 -50.46875 15.375 -50.46875 C 13.925781 -50.46875 12.847656 -50.140625 12.140625 -49.484375 C 11.441406 -48.835938 11.046875 -47.832031 10.953125 -46.46875 C 10.804688 -44.976562 10.742188 -43.472656 10.765625 -41.953125 C 10.796875 -40.429688 10.859375 -38.921875 10.953125 -37.421875 C 11.046875 -35.867188 11.335938 -34.648438 11.828125 -33.765625 C 12.316406 -32.878906 13.21875 -32.269531 14.53125 -31.9375 L 18.75 -30.953125 C 22.070312 -30.160156 24.316406 -28.742188 25.484375 -26.703125 C 26.648438 -24.671875 27.304688 -21.972656 27.453125 -18.609375 C 27.492188 -17.109375 27.503906 -15.816406 27.484375 -14.734375 C 27.460938 -13.660156 27.425781 -12.445312 27.375 -11.09375 C 27.238281 -6.925781 26.253906 -3.941406 24.421875 -2.140625 C 22.597656 -0.335938 19.601562 0.5625 15.4375 0.5625 Z M 15.4375 0.5625 "/></g></g></g></svg>